<mxfile host="app.diagrams.net" modified="2022-02-18T09:09:26.507Z" agent="5.0 (Windows NT 10.0; Win64; x64) AppleWebKit/537.36 (KHTML, like Gecko) Chrome/98.0.4758.102 Safari/537.36" etag="Vec_kZA7aN9gYWfbpyhz" version="16.6.1" type="github">
  <diagram id="C5RBs43oDa-KdzZeNtuy" name="Page-1">
    <mxGraphModel dx="920" dy="513" grid="1" gridSize="10" guides="1" tooltips="1" connect="1" arrows="1" fold="1" page="1" pageScale="1" pageWidth="827" pageHeight="1169" math="0" shadow="0">
      <root>
        <mxCell id="WIyWlLk6GJQsqaUBKTNV-0" />
        <mxCell id="WIyWlLk6GJQsqaUBKTNV-1" parent="WIyWlLk6GJQsqaUBKTNV-0" />
        <mxCell id="rQJRUy2X-uhnyu7SwjKM-2" value="Instructor" style="swimlane;fontStyle=0;childLayout=stackLayout;horizontal=1;startSize=30;horizontalStack=0;resizeParent=1;resizeParentMax=0;resizeLast=0;collapsible=1;marginBottom=0;" vertex="1" parent="WIyWlLk6GJQsqaUBKTNV-1">
          <mxGeometry x="140" y="390" width="140" height="120" as="geometry" />
        </mxCell>
        <mxCell id="rQJRUy2X-uhnyu7SwjKM-3" value="ID" style="text;strokeColor=none;fillColor=none;align=left;verticalAlign=middle;spacingLeft=4;spacingRight=4;overflow=hidden;points=[[0,0.5],[1,0.5]];portConstraint=eastwest;rotatable=0;" vertex="1" parent="rQJRUy2X-uhnyu7SwjKM-2">
          <mxGeometry y="30" width="140" height="30" as="geometry" />
        </mxCell>
        <mxCell id="rQJRUy2X-uhnyu7SwjKM-4" value="name" style="text;strokeColor=none;fillColor=none;align=left;verticalAlign=middle;spacingLeft=4;spacingRight=4;overflow=hidden;points=[[0,0.5],[1,0.5]];portConstraint=eastwest;rotatable=0;" vertex="1" parent="rQJRUy2X-uhnyu7SwjKM-2">
          <mxGeometry y="60" width="140" height="30" as="geometry" />
        </mxCell>
        <mxCell id="rQJRUy2X-uhnyu7SwjKM-5" value="salary" style="text;strokeColor=none;fillColor=none;align=left;verticalAlign=middle;spacingLeft=4;spacingRight=4;overflow=hidden;points=[[0,0.5],[1,0.5]];portConstraint=eastwest;rotatable=0;" vertex="1" parent="rQJRUy2X-uhnyu7SwjKM-2">
          <mxGeometry y="90" width="140" height="30" as="geometry" />
        </mxCell>
        <mxCell id="rQJRUy2X-uhnyu7SwjKM-16" value="" style="endArrow=none;html=1;rounded=0;exitX=0.036;exitY=-0.152;exitDx=0;exitDy=0;exitPerimeter=0;" edge="1" parent="rQJRUy2X-uhnyu7SwjKM-2" source="rQJRUy2X-uhnyu7SwjKM-4">
          <mxGeometry width="50" height="50" relative="1" as="geometry">
            <mxPoint x="250" y="200" as="sourcePoint" />
            <mxPoint x="130" y="55" as="targetPoint" />
          </mxGeometry>
        </mxCell>
        <mxCell id="rQJRUy2X-uhnyu7SwjKM-7" value="Student" style="swimlane;fontStyle=0;childLayout=stackLayout;horizontal=1;startSize=30;horizontalStack=0;resizeParent=1;resizeParentMax=0;resizeLast=0;collapsible=1;marginBottom=0;" vertex="1" parent="WIyWlLk6GJQsqaUBKTNV-1">
          <mxGeometry x="490" y="390" width="140" height="120" as="geometry" />
        </mxCell>
        <mxCell id="rQJRUy2X-uhnyu7SwjKM-8" value="ID" style="text;strokeColor=none;fillColor=none;align=left;verticalAlign=middle;spacingLeft=4;spacingRight=4;overflow=hidden;points=[[0,0.5],[1,0.5]];portConstraint=eastwest;rotatable=0;" vertex="1" parent="rQJRUy2X-uhnyu7SwjKM-7">
          <mxGeometry y="30" width="140" height="30" as="geometry" />
        </mxCell>
        <mxCell id="rQJRUy2X-uhnyu7SwjKM-9" value="name" style="text;strokeColor=none;fillColor=none;align=left;verticalAlign=middle;spacingLeft=4;spacingRight=4;overflow=hidden;points=[[0,0.5],[1,0.5]];portConstraint=eastwest;rotatable=0;" vertex="1" parent="rQJRUy2X-uhnyu7SwjKM-7">
          <mxGeometry y="60" width="140" height="30" as="geometry" />
        </mxCell>
        <mxCell id="rQJRUy2X-uhnyu7SwjKM-10" value="tot_cred" style="text;strokeColor=none;fillColor=none;align=left;verticalAlign=middle;spacingLeft=4;spacingRight=4;overflow=hidden;points=[[0,0.5],[1,0.5]];portConstraint=eastwest;rotatable=0;" vertex="1" parent="rQJRUy2X-uhnyu7SwjKM-7">
          <mxGeometry y="90" width="140" height="30" as="geometry" />
        </mxCell>
        <mxCell id="rQJRUy2X-uhnyu7SwjKM-18" value="" style="endArrow=none;html=1;rounded=0;entryX=0.018;entryY=-0.152;entryDx=0;entryDy=0;entryPerimeter=0;" edge="1" parent="rQJRUy2X-uhnyu7SwjKM-7" target="rQJRUy2X-uhnyu7SwjKM-9">
          <mxGeometry width="50" height="50" relative="1" as="geometry">
            <mxPoint x="130" y="55" as="sourcePoint" />
            <mxPoint x="-50" y="150" as="targetPoint" />
          </mxGeometry>
        </mxCell>
        <mxCell id="rQJRUy2X-uhnyu7SwjKM-11" value="advisor" style="rhombus;whiteSpace=wrap;html=1;" vertex="1" parent="WIyWlLk6GJQsqaUBKTNV-1">
          <mxGeometry x="330" y="410" width="110" height="70" as="geometry" />
        </mxCell>
        <mxCell id="rQJRUy2X-uhnyu7SwjKM-13" value="" style="endArrow=none;html=1;rounded=0;entryX=0;entryY=0.5;entryDx=0;entryDy=0;" edge="1" parent="WIyWlLk6GJQsqaUBKTNV-1" target="rQJRUy2X-uhnyu7SwjKM-11">
          <mxGeometry width="50" height="50" relative="1" as="geometry">
            <mxPoint x="280" y="444.40999999999997" as="sourcePoint" />
            <mxPoint x="320" y="444.40999999999997" as="targetPoint" />
          </mxGeometry>
        </mxCell>
        <mxCell id="rQJRUy2X-uhnyu7SwjKM-14" value="" style="shape=link;html=1;rounded=0;exitX=1;exitY=0.5;exitDx=0;exitDy=0;entryX=-0.025;entryY=0.874;entryDx=0;entryDy=0;entryPerimeter=0;" edge="1" parent="WIyWlLk6GJQsqaUBKTNV-1" source="rQJRUy2X-uhnyu7SwjKM-11" target="rQJRUy2X-uhnyu7SwjKM-8">
          <mxGeometry width="100" relative="1" as="geometry">
            <mxPoint x="390" y="570" as="sourcePoint" />
            <mxPoint x="450" y="570" as="targetPoint" />
          </mxGeometry>
        </mxCell>
      </root>
    </mxGraphModel>
  </diagram>
</mxfile>
